<svg xmlns="http://www.w3.org/2000/svg" fill="none" viewBox="0 0 164 48">
  <path fill="#000" d="M53.148 39.724V16.552h5.031l7.382 14.698 7.283-14.698h5.032v23.172h-4.237V23.735l-6.456 12.679H63.84l-6.455-12.679v15.99h-4.237Zm33.136.397q-2.116 0-3.476-.678c-.906-.451-1.576-1.055-2.019-1.804a4.8 4.8 0 0 1-.662-2.483q0-2.285 1.788-3.708 1.787-1.422 5.362-1.423h4.171v-.397q.002-1.69-.96-2.483-.962-.795-2.383-.795-1.29-.001-2.251.613-.963.614-1.192 1.804h-4.138q.167-1.788 1.208-3.112 1.043-1.322 2.698-2.036c1.105-.476 2.338-.711 3.708-.711q3.509-.001 5.528 1.754 2.019 1.756 2.02 4.966v10.096h-3.609l-.397-2.648a6.1 6.1 0 0 1-2.036 2.185c-.873.575-1.99.86-3.36.86m.96-3.31q1.82 0 2.83-1.192c.675-.794 1.097-1.775 1.275-2.946h-3.608q-1.69 0-2.417.612-.727.613-.728 1.507.001.962.728 1.49.728.528 1.92.529m13.109-16.055q-1.16 0-1.903-.695-.745-.695-.745-1.755t.745-1.738q.744-.677 1.903-.678 1.16 0 1.904.678.744.676.744 1.738c0 1.062-.248 1.291-.744 1.755q-.744.695-1.904.695m-2.118 18.968v-16.42h4.237v16.42zm7.017 0V15.89h4.238v23.834zm13.871-4.899a8.8 8.8 0 0 1-2.218-.265l-1.225 1.225c.377.198.881.364 1.523.496q.96.199 3.111.398 3.278.296 4.767 1.555 1.49 1.261 1.49 3.476c0 .973-.265 1.891-.794 2.764-.53.874-1.345 1.577-2.45 2.12q-1.657.81-4.237.81-3.507.002-5.661-1.308t-2.152-3.922c0-1.477.716-2.76 2.152-3.84a7.3 7.3 0 0 1-1.142-.63q-.478-.328-.844-.694v-.762l2.88-3.045q-1.92-1.688-1.92-4.337c0-1.105.269-2.106.811-3.012q.812-1.358 2.3-2.152 1.492-.795 3.609-.794a8.1 8.1 0 0 1 2.582.397h6.223v2.582l-2.814.198q.664 1.26.663 2.781c0 1.105-.265 2.106-.795 3.013q-.794 1.358-2.301 2.151-1.506.795-3.558.795m-3.973 6.918q0 1.223 1.142 1.838 1.142.614 2.798.612c1.104 0 1.92-.215 2.582-.645q.993-.645.993-1.738 0-.894-.646-1.49-.647-.596-2.565-.728a26 26 0 0 1-2.516-.298q-.96.53-1.374 1.158t-.414 1.291m3.973-10.162q1.29 0 2.135-.695.844-.696.844-1.987 0-1.29-.844-1.986-.845-.695-2.135-.695-1.36 0-2.185.695-.827.695-.828 1.986.001 1.291.828 1.986.825.696 2.185.696m16.386 8.54q-3.08 0-4.75-1.92c-1.113-1.278-1.672-3.157-1.672-5.627v-9.27h4.204v8.872q0 2.12.861 3.245.86 1.124 2.714 1.125 1.755.001 2.897-1.258c.761-.84 1.142-2.007 1.142-3.509v-8.474h4.237v16.42h-3.741l-.331-2.782a5.8 5.8 0 0 1-2.201 2.318q-1.44.861-3.36.86m12.314-.397v-16.42h3.741l.331 2.782a5.8 5.8 0 0 1 2.202-2.318q1.439-.861 3.393-.86 3.046 0 4.733 1.92c1.126 1.278 1.689 3.157 1.689 5.627v9.27h-4.238v-8.873c0-1.41-.285-2.495-.86-3.244q-.863-1.124-2.682-1.125c-1.212 0-2.168.418-2.929 1.258q-1.142 1.258-1.142 3.509v8.474zM56.11 11.644q-.894 0-1.576-.306a2.5 2.5 0 0 1-1.076-.881q-.391-.577-.406-1.395h1.565c.016.38.153.695.41.956.256.26.616.389 1.07.389q.592 0 .94-.286a.93.93 0 0 0 .348-.757c0-.314-.104-.592-.306-.778q-.305-.278-.816-.45l-1.088-.373c-.625-.215-1.105-.493-1.431-.836q-.492-.508-.493-1.357-.01-.72.343-1.233a2.34 2.34 0 0 1 .969-.799q.614-.286 1.415-.286c.801 0 1.018.096 1.432.29q.62.292.972.811.353.522.377 1.242h-1.59a1.1 1.1 0 0 0-.33-.758q-.322-.33-.886-.33-.486-.013-.815.235-.33.248-.331.724.001.405.256.642t.696.401q.439.161 1.01.348a7 7 0 0 1 1.1.488q.498.278.799.736c.202.307.302.696.302 1.176q0 .638-.323 1.183c-.215.364-.538.654-.96.873q-.64.33-1.564.331zm6.464-.14v-8.11h1.481v8.11zm5.375 0v-8.11h1.481l3.811 5.71v-5.71h1.482v8.11H73.24L69.431 5.8v5.703zm14.346.14q-1.23 0-2.11-.525a3.5 3.5 0 0 1-1.357-1.473q-.477-.945-.476-2.185-.001-1.24.476-2.19a3.54 3.54 0 0 1 1.357-1.48q.88-.534 2.11-.534 1.46-.001 2.392.724c.62.484 1.01 1.158 1.163 2.031h-1.635a1.76 1.76 0 0 0-.641-1.038q-.49-.378-1.304-.377-1.123.001-1.762.766-.64.763-.638 2.098-.001 1.334.638 2.09t1.762.757q.813-.002 1.304-.352a1.63 1.63 0 0 0 .641-.98h1.635q-.23 1.251-1.163 1.956-.932.708-2.392.708zm7.184-.14v-8.11h1.481v3.372h3.637V3.393h1.482v8.11h-1.482V7.97H90.96v3.534z"/>
  <path fill="#eb5454" d="M21.517 24.385a2.868 2.868 0 1 0 0-5.735 2.868 2.868 0 0 0 0 5.735"/>
  <path fill="#eb5454" d="M35.143 23.669a2.153 2.153 0 0 1-2.151-2.152c0-6.34-5.14-11.474-11.475-11.474s-11.474 5.139-11.474 11.474 5.139 11.475 11.474 11.475c4.378 0 8.185-2.45 10.117-6.058a6.459 6.459 0 0 0 9.965-5.42c0-11.09-8.992-20.082-20.082-20.082S1.436 10.428 1.436 21.517s8.992 20.082 20.081 20.082a20 20 0 0 0 14.202-5.884l-3.042-3.042a15.73 15.73 0 0 1-11.156 4.622c-8.714 0-15.778-7.063-15.778-15.778s7.06-15.778 15.774-15.778c8.715 0 15.778 7.064 15.778 15.778a2.153 2.153 0 0 1-2.152 2.152m-13.626 5.02a7.172 7.172 0 1 1 .001-14.344 7.172 7.172 0 0 1 0 14.343Z"/>
</svg>